<svg xmlns="http://www.w3.org/2000/svg" width="67" height="100" viewBox="0 0 67 100" version="1.1"><path d="M 32.193 5.857 C 32.053 10.467, 31.657 12.085, 30.750 11.745 C 14.224 5.541, 0.716 0.951, 0.276 1.390 C -0.033 1.700, 0.341 2.180, 1.107 2.457 C 18.638 8.801, 23.024 10.369, 25.750 11.266 C 27.538 11.854, 29 12.651, 29 13.037 C 29 13.423, 23.038 15.836, 15.750 18.399 C 3.256 22.794, -1.778 24.964, 0.500 24.973 C 1.050 24.976, 8.218 22.508, 16.429 19.489 C 24.640 16.470, 31.513 14, 31.702 14 C 31.891 14, 31.922 22.160, 31.773 32.132 L 31.500 50.265 16.081 55.882 C 7.601 58.972, 0.500 61.990, 0.301 62.590 C 0.097 63.205, 6.909 66.205, 15.941 69.479 L 31.942 75.278 32.254 87.889 L 32.565 100.500 32.783 87.842 L 33 75.184 38.750 73.155 C 41.913 72.040, 48.934 69.524, 54.353 67.564 C 59.773 65.604, 64.385 64, 64.603 64 C 64.822 64, 65.101 72.213, 65.225 82.250 L 65.451 100.500 65.749 82.526 C 65.914 72.608, 66.485 64.115, 67.024 63.576 C 68.304 62.296, 68.285 60.706, 67 61.500 C 65.636 62.343, 65.658 27.508, 67.023 24.957 C 67.845 23.420, 67.751 23.158, 66.541 23.622 C 65.714 23.940, 58.616 21.874, 50.768 19.031 C 37.262 14.139, 32.770 12, 35.999 12 C 36.769 12, 43.721 9.707, 51.449 6.904 C 59.177 4.102, 66.175 1.574, 67 1.288 C 67.833 0.999, 68.026 0.587, 67.432 0.361 C 66.604 0.046, 46.012 7.078, 34.800 11.504 C 33.328 12.086, 33.052 11.325, 32.743 5.838 L 32.385 -0.500 32.193 5.857 M 0 1.500 C 0 1.775, 0.225 2, 0.500 2 C 0.775 2, 1 1.775, 1 1.500 C 1 1.225, 0.775 1, 0.500 1 C 0.225 1, 0 1.225, 0 1.500 M 33.227 32.084 L 33.500 50.350 41 53.081 C 45.125 54.583, 52.212 57.173, 56.750 58.836 L 65 61.860 64.991 43.680 L 64.983 25.500 49.790 20 C 41.435 16.975, 34.228 14.347, 33.776 14.159 C 33.324 13.971, 33.077 22.038, 33.227 32.084 M 0 24.500 C 0 24.775, 0.225 25, 0.500 25 C 0.775 25, 1 24.775, 1 24.500 C 1 24.225, 0.775 24, 0.500 24 C 0.225 24, 0 24.225, 0 24.500 M 17.215 56.808 C 8.808 59.845, 2.283 62.648, 2.715 63.037 C 3.147 63.426, 9.986 66.083, 17.913 68.942 L 32.326 74.141 46.913 68.912 C 54.936 66.036, 61.875 63.357, 62.333 62.959 C 62.791 62.560, 59.191 60.886, 54.333 59.238 C 49.475 57.590, 42.575 55.126, 39 53.763 L 32.500 51.285 17.215 56.808 M -0 63 C -0 63.733, 0.300 64.033, 0.667 63.667 C 1.033 63.300, 1.033 62.700, 0.667 62.333 C 0.300 61.967, -0 62.267, -0 63" stroke="none" fill="#d5d5d5" fill-rule="evenodd"/></svg>